<?xml version="1.0" encoding="UTF-8"?>
<svg viewBox="0 0 186.64417 169.959" xmlns="http://www.w3.org/2000/svg">
 <g transform="translate(-2155.4 -1657.3)">
  <path d="m2248.2 1659.4c-11.842 0.0474-23.864 1.8162-35.423 5.4952l-0.3677 0.1226c-46.023 14.824-67.222 54.436-47.414 88.598 19.863 34.257 73.514 50.119 119.75 35.402 4.3815-1.3944 8.5399-3.0132 12.461-4.8313-2.4095 13.923-19.487 28.157-31.501 40.898 0 0 24.662-8.2816 36.158-20.694 10.34-11.164 12.694-26.413 13.186-31.051 24.173-18.995 32.263-47.54 17.476-73.042-14.897-25.693-48.803-41.04-84.328-40.898z" fill="#fff" stroke="#000" stroke-linecap="round" stroke-linejoin="round" stroke-width="4.2733"/>
 </g>
</svg>
